<svg width="255" height="224" viewBox="0 0 255 224" fill="none" xmlns="http://www.w3.org/2000/svg">
<path d="M122.249 48.65C126.402 47.0167 125.492 42.5134 123.392 39.6667C121.315 36.75 118.445 34.7434 115.552 32.8067C113.488 31.5055 111.644 29.8829 110.092 28C109.439 27.23 108.109 25.8067 109.462 25.5267C110.839 25.2467 113.219 26.6 114.432 27.1134C116.555 28 118.655 29.0267 120.615 30.24L122.972 26.2734C119.332 23.87 114.665 21.7467 110.325 21.1167C107.852 20.7434 105.239 21.2567 104.399 23.94C103.652 26.25 104.842 28.5834 106.195 30.4034C109.392 34.6734 114.362 36.7267 118.072 40.4134C118.865 41.1834 119.822 42.0934 120.289 43.1667C120.779 44.1934 120.662 44.2634 119.565 44.2634C116.672 44.2634 113.055 42 110.699 40.5067L108.342 44.4734C111.912 46.6667 117.885 50.0967 122.249 48.65ZM148.125 12.25C148.639 11.7367 148.639 10.8967 148.125 10.4067L145.092 7.37337C144.848 7.13783 144.521 7.00623 144.182 7.00623C143.843 7.00623 143.516 7.13783 143.272 7.37337L140.892 9.75337L145.745 14.6067L148.125 12.25ZM125.165 25.48V30.3334H130.019L144.369 15.9834L139.515 11.13L125.165 25.48Z" fill="#2091F9"/>
<path d="M29.5684 93.84H30.5084C31.7217 93.84 32.6084 93.52 33.1684 92.88C33.7417 92.2267 34.0284 91.2333 34.0284 89.9V89.74C34.0284 88.38 33.7417 87.3933 33.1684 86.78C32.6084 86.1667 31.7084 85.86 30.4684 85.86H29.5684V93.84ZM25.4484 97V82.7H30.6484C33.1684 82.7 35.075 83.3067 36.3684 84.52C37.6617 85.72 38.3084 87.44 38.3084 89.68V89.84C38.3084 92.0933 37.6484 93.8533 36.3284 95.12C35.0217 96.3733 33.1217 97 30.6284 97H25.4484ZM45.2116 97.24C43.5316 97.24 42.165 96.7667 41.1116 95.82C40.0583 94.8733 39.5316 93.5667 39.5316 91.9V91.74C39.5316 90.1 40.0716 88.78 41.1516 87.78C42.2316 86.7667 43.5783 86.26 45.1916 86.26C46.725 86.26 47.9916 86.7133 48.9916 87.62C50.005 88.5267 50.5116 89.8733 50.5116 91.66V92.6H43.1516C43.205 93.2933 43.4183 93.8333 43.7916 94.22C44.1783 94.5933 44.6916 94.78 45.3316 94.78C46.385 94.78 46.9916 94.3667 47.1516 93.54H50.5116C50.3516 94.7267 49.8183 95.64 48.9116 96.28C48.0183 96.92 46.785 97.24 45.2116 97.24ZM43.1916 90.58H47.0316C46.965 89.2733 46.3516 88.62 45.1916 88.62C44.645 88.62 44.1983 88.7933 43.8516 89.14C43.505 89.4733 43.285 89.9533 43.1916 90.58ZM59.8224 96.36C58.9958 96.9467 57.8358 97.24 56.3424 97.24C54.8491 97.24 53.6824 96.94 52.8424 96.34C52.0158 95.7267 51.5824 94.84 51.5424 93.68H54.8424C54.9091 94.08 55.0491 94.38 55.2624 94.58C55.4758 94.7667 55.8291 94.86 56.3224 94.86C57.1758 94.86 57.6024 94.5733 57.6024 94C57.6024 93.7467 57.4558 93.5533 57.1624 93.42C56.8824 93.2867 56.3824 93.1667 55.6624 93.06C54.2358 92.8733 53.2158 92.5333 52.6024 92.04C51.9891 91.5467 51.6824 90.7667 51.6824 89.7C51.6824 88.5933 52.1091 87.7467 52.9624 87.16C53.8158 86.56 54.8824 86.26 56.1624 86.26C59.0291 86.26 60.5691 87.3867 60.7824 89.64H57.5424C57.4091 88.9467 56.9624 88.6 56.2024 88.6C55.8291 88.6 55.5358 88.6733 55.3224 88.82C55.1224 88.9667 55.0224 89.1667 55.0224 89.42C55.0224 89.66 55.1491 89.8467 55.4024 89.98C55.6691 90.1 56.1291 90.2 56.7824 90.28C58.3024 90.4667 59.3958 90.8067 60.0624 91.3C60.7424 91.78 61.0824 92.56 61.0824 93.64C61.0824 94.8533 60.6624 95.76 59.8224 96.36ZM62.7354 97V86.54H66.3154V97H62.7354ZM65.9154 85.02C65.5421 85.3667 65.0754 85.54 64.5154 85.54C63.9554 85.54 63.4887 85.3667 63.1154 85.02C62.7421 84.6733 62.5554 84.2333 62.5554 83.7C62.5554 83.1667 62.7421 82.7267 63.1154 82.38C63.4887 82.02 63.9554 81.84 64.5154 81.84C65.0754 81.84 65.5421 82.02 65.9154 82.38C66.3021 82.7267 66.4954 83.1667 66.4954 83.7C66.4954 84.2333 66.3021 84.6733 65.9154 85.02ZM73.5338 100.88C70.1872 100.88 68.3605 99.5867 68.0538 97H71.6138C71.8005 97.9067 72.4405 98.36 73.5338 98.36C75.0138 98.36 75.7538 97.6267 75.7538 96.16V94.56C75.4605 95.1067 75.0272 95.5667 74.4538 95.94C73.8938 96.3 73.2472 96.48 72.5138 96.48C71.2472 96.48 70.1872 96.0333 69.3338 95.14C68.4938 94.2467 68.0738 93.02 68.0738 91.46V91.3C68.0738 89.7933 68.4938 88.58 69.3338 87.66C70.1872 86.7267 71.2472 86.26 72.5138 86.26C74.0072 86.26 75.0872 86.8467 75.7538 88.02V86.54H79.3338V96.12C79.3338 97.68 78.8338 98.86 77.8338 99.66C76.8472 100.473 75.4138 100.88 73.5338 100.88ZM72.2738 93.2C72.6338 93.6267 73.1338 93.84 73.7738 93.84C74.4138 93.84 74.9205 93.6267 75.2938 93.2C75.6672 92.76 75.8538 92.1733 75.8538 91.44V91.3C75.8538 90.5667 75.6738 89.9933 75.3138 89.58C74.9538 89.1533 74.4472 88.94 73.7938 88.94C73.1405 88.94 72.6338 89.1533 72.2738 89.58C71.9138 90.0067 71.7338 90.5867 71.7338 91.32V91.48C71.7338 92.2 71.9138 92.7733 72.2738 93.2ZM81.5463 97V86.54H85.1263V88.22C85.433 87.6333 85.873 87.16 86.4463 86.8C87.033 86.44 87.7397 86.26 88.5663 86.26C89.6197 86.26 90.453 86.5933 91.0663 87.26C91.6797 87.9267 91.9863 88.9067 91.9863 90.2V97H88.4063V90.92C88.4063 89.7467 87.9063 89.16 86.9063 89.16C86.3597 89.16 85.9263 89.3267 85.6063 89.66C85.2863 89.9933 85.1263 90.4867 85.1263 91.14V97H81.5463ZM100.452 97L97.2921 86.54H101.032L102.552 92.8L104.312 86.54H107.192L108.752 92.8L110.452 86.54H113.852L110.532 97H107.112L105.552 91.16L103.932 97H100.452ZM115.267 97V86.54H118.847V97H115.267ZM118.447 85.02C118.073 85.3667 117.607 85.54 117.047 85.54C116.487 85.54 116.02 85.3667 115.647 85.02C115.273 84.6733 115.087 84.2333 115.087 83.7C115.087 83.1667 115.273 82.7267 115.647 82.38C116.02 82.02 116.487 81.84 117.047 81.84C117.607 81.84 118.073 82.02 118.447 82.38C118.833 82.7267 119.027 83.1667 119.027 83.7C119.027 84.2333 118.833 84.6733 118.447 85.02ZM125.325 97.24C122.872 97.24 121.645 96.04 121.645 93.64V88.98H120.385V86.54H121.645V84.36H125.225V86.54H127.285V88.98H125.225V93.3C125.225 94.0333 125.578 94.4 126.285 94.4C126.645 94.4 126.985 94.34 127.305 94.22V96.94C126.532 97.14 125.872 97.24 125.325 97.24ZM129.039 97V81.94H132.619V88.22C132.925 87.6333 133.365 87.16 133.939 86.8C134.525 86.44 135.232 86.26 136.059 86.26C137.112 86.26 137.945 86.5933 138.559 87.26C139.172 87.9267 139.479 88.9067 139.479 90.2V97H135.899V90.92C135.899 89.7467 135.399 89.16 134.399 89.16C133.852 89.16 133.419 89.3267 133.099 89.66C132.779 89.9933 132.619 90.4867 132.619 91.14V97H129.039ZM145.664 97V86.54H149.244V88.62C149.884 87.1267 151.011 86.3867 152.624 86.4V89.74C150.371 89.6733 149.244 90.44 149.244 92.04V97H145.664ZM159.341 97.24C157.661 97.24 156.295 96.7667 155.241 95.82C154.188 94.8733 153.661 93.5667 153.661 91.9V91.74C153.661 90.1 154.201 88.78 155.281 87.78C156.361 86.7667 157.708 86.26 159.321 86.26C160.855 86.26 162.121 86.7133 163.121 87.62C164.135 88.5267 164.641 89.8733 164.641 91.66V92.6H157.281C157.335 93.2933 157.548 93.8333 157.921 94.22C158.308 94.5933 158.821 94.78 159.461 94.78C160.515 94.78 161.121 94.3667 161.281 93.54H164.641C164.481 94.7267 163.948 95.64 163.041 96.28C162.148 96.92 160.915 97.24 159.341 97.24ZM157.321 90.58H161.161C161.095 89.2733 160.481 88.62 159.321 88.62C158.775 88.62 158.328 88.7933 157.981 89.14C157.635 89.4733 157.415 89.9533 157.321 90.58ZM169.312 97.24C168.285 97.24 167.439 96.98 166.772 96.46C166.105 95.94 165.772 95.1533 165.772 94.1C165.772 91.82 167.625 90.68 171.332 90.68H172.332V90.44C172.332 89.8933 172.232 89.48 172.032 89.2C171.845 88.92 171.485 88.78 170.952 88.78C170.112 88.78 169.639 89.1933 169.532 90.02H166.172C166.252 88.7933 166.739 87.86 167.632 87.22C168.525 86.58 169.705 86.26 171.172 86.26C172.665 86.26 173.825 86.5867 174.652 87.24C175.479 87.88 175.892 88.8733 175.892 90.22V97H172.412V95.78C171.772 96.7533 170.739 97.24 169.312 97.24ZM170.552 94.82C171.072 94.82 171.499 94.6867 171.832 94.42C172.165 94.14 172.332 93.78 172.332 93.34V92.7H171.392C170.659 92.7 170.125 92.7867 169.792 92.96C169.472 93.12 169.312 93.4133 169.312 93.84C169.312 94.4933 169.725 94.82 170.552 94.82ZM178.135 97V81.94H181.695V97H178.135ZM191.939 97.24C190.659 97.24 189.605 96.78 188.779 95.86C187.952 94.94 187.539 93.6133 187.539 91.88V91.72C187.539 90 187.952 88.66 188.779 87.7C189.619 86.74 190.685 86.26 191.979 86.26C193.459 86.26 194.532 86.8467 195.199 88.02V81.94H198.779V97H195.199V95.3C194.919 95.8733 194.492 96.34 193.919 96.7C193.359 97.06 192.699 97.24 191.939 97.24ZM193.199 94.5C193.865 94.5 194.379 94.2733 194.739 93.82C195.112 93.3667 195.299 92.7 195.299 91.82V91.66C195.299 90.78 195.119 90.1133 194.759 89.66C194.412 89.1933 193.905 88.96 193.239 88.96C191.865 88.96 191.179 89.8667 191.179 91.68V91.84C191.179 92.7067 191.359 93.3667 191.719 93.82C192.079 94.2733 192.572 94.5 193.199 94.5ZM203.931 97.24C202.904 97.24 202.058 96.98 201.391 96.46C200.724 95.94 200.391 95.1533 200.391 94.1C200.391 91.82 202.244 90.68 205.951 90.68H206.951V90.44C206.951 89.8933 206.851 89.48 206.651 89.2C206.464 88.92 206.104 88.78 205.571 88.78C204.731 88.78 204.258 89.1933 204.151 90.02H200.791C200.871 88.7933 201.358 87.86 202.251 87.22C203.144 86.58 204.324 86.26 205.791 86.26C207.284 86.26 208.444 86.5867 209.271 87.24C210.098 87.88 210.511 88.8733 210.511 90.22V97H207.031V95.78C206.391 96.7533 205.358 97.24 203.931 97.24ZM205.171 94.82C205.691 94.82 206.118 94.6867 206.451 94.42C206.784 94.14 206.951 93.78 206.951 93.34V92.7H206.011C205.278 92.7 204.744 92.7867 204.411 92.96C204.091 93.12 203.931 93.4133 203.931 93.84C203.931 94.4933 204.344 94.82 205.171 94.82ZM216.716 97.24C214.262 97.24 213.036 96.04 213.036 93.64V88.98H211.776V86.54H213.036V84.36H216.616V86.54H218.676V88.98H216.616V93.3C216.616 94.0333 216.969 94.4 217.676 94.4C218.036 94.4 218.376 94.34 218.696 94.22V96.94C217.922 97.14 217.262 97.24 216.716 97.24ZM223.369 97.24C222.342 97.24 221.496 96.98 220.829 96.46C220.162 95.94 219.829 95.1533 219.829 94.1C219.829 91.82 221.682 90.68 225.389 90.68H226.389V90.44C226.389 89.8933 226.289 89.48 226.089 89.2C225.902 88.92 225.542 88.78 225.009 88.78C224.169 88.78 223.696 89.1933 223.589 90.02H220.229C220.309 88.7933 220.796 87.86 221.689 87.22C222.582 86.58 223.762 86.26 225.229 86.26C226.722 86.26 227.882 86.5867 228.709 87.24C229.536 87.88 229.949 88.8733 229.949 90.22V97H226.469V95.78C225.829 96.7533 224.796 97.24 223.369 97.24ZM224.609 94.82C225.129 94.82 225.556 94.6867 225.889 94.42C226.222 94.14 226.389 93.78 226.389 93.34V92.7H225.449C224.716 92.7 224.182 92.7867 223.849 92.96C223.529 93.12 223.369 93.4133 223.369 93.84C223.369 94.4933 223.782 94.82 224.609 94.82Z" fill="#252B42"/>
<path d="M27.355 142.162C25.759 142.162 24.571 141.79 23.791 141.046C23.023 140.29 22.573 139.3 22.441 138.076H23.953C24.013 138.496 24.097 138.862 24.205 139.174C24.325 139.486 24.505 139.78 24.745 140.056C24.985 140.332 25.321 140.542 25.753 140.686C26.197 140.83 26.731 140.902 27.355 140.902C28.195 140.902 28.891 140.68 29.443 140.236C30.007 139.78 30.289 139.192 30.289 138.472C30.289 137.728 30.073 137.182 29.641 136.834C29.209 136.474 28.387 136.198 27.175 136.006C25.723 135.79 24.643 135.418 23.935 134.89C23.227 134.35 22.873 133.54 22.873 132.46C22.873 131.464 23.263 130.636 24.043 129.976C24.823 129.304 25.813 128.968 27.013 128.968C28.309 128.968 29.341 129.274 30.109 129.886C30.877 130.498 31.321 131.374 31.441 132.514H30.037C29.881 131.71 29.563 131.128 29.083 130.768C28.603 130.408 27.913 130.228 27.013 130.228C26.161 130.228 25.501 130.42 25.033 130.804C24.565 131.188 24.331 131.692 24.331 132.316C24.331 132.988 24.535 133.492 24.943 133.828C25.351 134.164 26.179 134.428 27.427 134.62C28.939 134.86 30.043 135.256 30.739 135.808C31.447 136.348 31.801 137.2 31.801 138.364C31.801 139.444 31.375 140.35 30.523 141.082C29.683 141.802 28.627 142.162 27.355 142.162ZM34.6101 142V128.086H36.1221V142H34.6101ZM41.7376 142.162C40.8136 142.162 40.0576 141.934 39.4696 141.478C38.8936 141.01 38.6056 140.314 38.6056 139.39C38.6056 138.382 39.0496 137.644 39.9376 137.176C40.8376 136.708 41.9656 136.474 43.3216 136.474H44.6716V135.79C44.6716 135.034 44.5156 134.494 44.2036 134.17C43.8916 133.834 43.3756 133.666 42.6556 133.666C41.3596 133.666 40.6396 134.23 40.4956 135.358H39.0016C39.0976 134.35 39.4936 133.612 40.1896 133.144C40.8856 132.664 41.7316 132.424 42.7276 132.424C45.0196 132.424 46.1656 133.546 46.1656 135.79V142H44.6716V140.812C43.9516 141.712 42.9736 142.162 41.7376 142.162ZM41.8816 140.974C42.6976 140.974 43.3636 140.776 43.8796 140.38C44.4076 139.972 44.6716 139.414 44.6716 138.706V137.536H43.3756C41.1916 137.536 40.0996 138.154 40.0996 139.39C40.0996 140.446 40.6936 140.974 41.8816 140.974ZM52.1623 142.126C51.3343 142.126 50.7043 141.904 50.2723 141.46C49.8403 141.016 49.6243 140.41 49.6243 139.642V133.846H48.2743V132.586H49.6243V130.444H51.1183V132.586H53.3143V133.846H51.1183V139.498C51.1183 140.41 51.5083 140.866 52.2883 140.866C52.7203 140.866 53.1043 140.8 53.4403 140.668V141.928C53.0683 142.06 52.6423 142.126 52.1623 142.126ZM59.7507 142.162C58.4067 142.162 57.3087 141.73 56.4567 140.866C55.6167 139.99 55.1967 138.832 55.1967 137.392V137.248C55.1967 135.832 55.6047 134.674 56.4207 133.774C57.2487 132.874 58.3107 132.424 59.6067 132.424C60.8067 132.424 61.8087 132.814 62.6127 133.594C63.4287 134.362 63.8367 135.532 63.8367 137.104V137.59H56.7447C56.7807 138.67 57.0507 139.498 57.5547 140.074C58.0707 140.638 58.8087 140.92 59.7687 140.92C61.2447 140.92 62.0787 140.374 62.2707 139.282H63.7647C63.6087 140.206 63.1707 140.92 62.4507 141.424C61.7307 141.916 60.8307 142.162 59.7507 142.162ZM56.7987 136.384H62.3067C62.1747 134.572 61.2747 133.666 59.6067 133.666C58.8507 133.666 58.2267 133.912 57.7347 134.404C57.2427 134.884 56.9307 135.544 56.7987 136.384ZM71.2929 142V128.086H72.7869V134.08C73.0149 133.6 73.3929 133.204 73.9209 132.892C74.4489 132.58 75.0789 132.424 75.8109 132.424C76.8429 132.424 77.6529 132.73 78.2409 133.342C78.8289 133.954 79.1229 134.914 79.1229 136.222V142H77.6289V136.114C77.6289 135.286 77.4489 134.68 77.0889 134.296C76.7289 133.912 76.1709 133.72 75.4149 133.72C74.6829 133.72 74.0589 133.948 73.5429 134.404C73.0389 134.86 72.7869 135.49 72.7869 136.294V142H71.2929ZM86.1027 142.162C84.7587 142.162 83.6607 141.73 82.8087 140.866C81.9687 139.99 81.5487 138.832 81.5487 137.392V137.248C81.5487 135.832 81.9567 134.674 82.7727 133.774C83.6007 132.874 84.6627 132.424 85.9587 132.424C87.1587 132.424 88.1607 132.814 88.9647 133.594C89.7807 134.362 90.1887 135.532 90.1887 137.104V137.59H83.0967C83.1327 138.67 83.4027 139.498 83.9067 140.074C84.4227 140.638 85.1607 140.92 86.1207 140.92C87.5967 140.92 88.4307 140.374 88.6227 139.282H90.1167C89.9607 140.206 89.5227 140.92 88.8027 141.424C88.0827 141.916 87.1827 142.162 86.1027 142.162ZM83.1507 136.384H88.6587C88.5267 134.572 87.6267 133.666 85.9587 133.666C85.2027 133.666 84.5787 133.912 84.0867 134.404C83.5947 134.884 83.2827 135.544 83.1507 136.384ZM92.7171 142V128.086H94.2291V142H92.7171ZM97.4866 145.276V132.586H98.9806V134.17C99.2686 133.69 99.7066 133.282 100.295 132.946C100.883 132.598 101.507 132.424 102.167 132.424C103.427 132.424 104.453 132.856 105.245 133.72C106.049 134.572 106.451 135.718 106.451 137.158V137.302C106.451 138.754 106.055 139.93 105.263 140.83C104.483 141.718 103.451 142.162 102.167 142.162C101.435 142.162 100.793 142.006 100.241 141.694C99.6886 141.37 99.2686 140.956 98.9806 140.452V145.276H97.4866ZM102.023 140.92C102.959 140.92 103.673 140.614 104.165 140.002C104.657 139.39 104.903 138.514 104.903 137.374V137.23C104.903 136.09 104.627 135.214 104.075 134.602C103.535 133.978 102.845 133.666 102.005 133.666C101.093 133.666 100.349 133.972 99.7726 134.584C99.2086 135.184 98.9266 136.066 98.9266 137.23V137.374C98.9266 138.538 99.2026 139.42 99.7546 140.02C100.319 140.62 101.075 140.92 102.023 140.92ZM111.888 142.162C110.76 142.162 109.872 141.892 109.224 141.352C108.588 140.812 108.246 140.062 108.198 139.102H109.656C109.776 140.314 110.514 140.92 111.87 140.92C113.238 140.92 113.922 140.422 113.922 139.426C113.922 138.958 113.748 138.616 113.4 138.4C113.064 138.172 112.506 137.986 111.726 137.842C110.502 137.614 109.65 137.302 109.17 136.906C108.69 136.498 108.45 135.886 108.45 135.07C108.45 134.254 108.774 133.612 109.422 133.144C110.082 132.664 110.82 132.424 111.636 132.424C113.676 132.424 114.81 133.33 115.038 135.142H113.598C113.49 134.626 113.28 134.254 112.968 134.026C112.656 133.786 112.206 133.666 111.618 133.666C111.078 133.666 110.646 133.792 110.322 134.044C109.998 134.284 109.836 134.608 109.836 135.016C109.836 135.448 109.986 135.766 110.286 135.97C110.598 136.174 111.18 136.354 112.032 136.51C112.596 136.618 113.046 136.726 113.382 136.834C113.73 136.93 114.066 137.08 114.39 137.284C114.726 137.488 114.966 137.758 115.11 138.094C115.266 138.418 115.344 138.82 115.344 139.3C115.344 140.176 115.044 140.872 114.444 141.388C113.856 141.904 113.004 142.162 111.888 142.162ZM123.63 145.276L125.412 141.028L121.722 132.586H123.324L126.204 139.336L128.814 132.586H130.344L125.142 145.276H123.63ZM136.172 140.92C137.108 140.92 137.852 140.596 138.404 139.948C138.968 139.3 139.25 138.442 139.25 137.374V137.248C139.25 136.156 138.968 135.286 138.404 134.638C137.852 133.99 137.108 133.666 136.172 133.666C135.224 133.666 134.474 133.99 133.922 134.638C133.37 135.286 133.094 136.15 133.094 137.23V137.374C133.094 138.454 133.37 139.318 133.922 139.966C134.474 140.602 135.224 140.92 136.172 140.92ZM136.154 142.162C134.822 142.162 133.718 141.712 132.842 140.812C131.978 139.9 131.546 138.754 131.546 137.374V137.23C131.546 135.826 131.978 134.674 132.842 133.774C133.718 132.874 134.828 132.424 136.172 132.424C137.516 132.424 138.62 132.874 139.484 133.774C140.36 134.662 140.798 135.808 140.798 137.212V137.356C140.798 138.772 140.36 139.93 139.484 140.83C138.608 141.718 137.498 142.162 136.154 142.162ZM146.497 142.162C145.501 142.162 144.703 141.868 144.103 141.28C143.515 140.692 143.221 139.78 143.221 138.544V132.586H144.715V138.472C144.715 139.3 144.889 139.906 145.237 140.29C145.597 140.674 146.149 140.866 146.893 140.866C147.601 140.866 148.207 140.638 148.711 140.182C149.227 139.726 149.485 139.096 149.485 138.292V132.586H150.979V142H149.485V140.506C149.257 140.986 148.879 141.382 148.351 141.694C147.835 142.006 147.217 142.162 146.497 142.162ZM162.078 142.162C160.95 142.162 160.062 141.892 159.414 141.352C158.778 140.812 158.436 140.062 158.388 139.102H159.846C159.966 140.314 160.704 140.92 162.06 140.92C163.428 140.92 164.112 140.422 164.112 139.426C164.112 138.958 163.938 138.616 163.59 138.4C163.254 138.172 162.696 137.986 161.916 137.842C160.692 137.614 159.84 137.302 159.36 136.906C158.88 136.498 158.64 135.886 158.64 135.07C158.64 134.254 158.964 133.612 159.612 133.144C160.272 132.664 161.01 132.424 161.826 132.424C163.866 132.424 165 133.33 165.228 135.142H163.788C163.68 134.626 163.47 134.254 163.158 134.026C162.846 133.786 162.396 133.666 161.808 133.666C161.268 133.666 160.836 133.792 160.512 134.044C160.188 134.284 160.026 134.608 160.026 135.016C160.026 135.448 160.176 135.766 160.476 135.97C160.788 136.174 161.37 136.354 162.222 136.51C162.786 136.618 163.236 136.726 163.572 136.834C163.92 136.93 164.256 137.08 164.58 137.284C164.916 137.488 165.156 137.758 165.3 138.094C165.456 138.418 165.534 138.82 165.534 139.3C165.534 140.176 165.234 140.872 164.634 141.388C164.046 141.904 163.194 142.162 162.078 142.162ZM171.862 142.162C170.518 142.162 169.42 141.73 168.568 140.866C167.728 139.99 167.308 138.832 167.308 137.392V137.248C167.308 135.832 167.716 134.674 168.532 133.774C169.36 132.874 170.422 132.424 171.718 132.424C172.918 132.424 173.92 132.814 174.724 133.594C175.54 134.362 175.948 135.532 175.948 137.104V137.59H168.856C168.892 138.67 169.162 139.498 169.666 140.074C170.182 140.638 170.92 140.92 171.88 140.92C173.356 140.92 174.19 140.374 174.382 139.282H175.876C175.72 140.206 175.282 140.92 174.562 141.424C173.842 141.916 172.942 142.162 171.862 142.162ZM168.91 136.384H174.418C174.286 134.572 173.386 133.666 171.718 133.666C170.962 133.666 170.338 133.912 169.846 134.404C169.354 134.884 169.042 135.544 168.91 136.384ZM182.293 142.162C180.949 142.162 179.851 141.73 178.999 140.866C178.159 139.99 177.739 138.832 177.739 137.392V137.248C177.739 135.832 178.147 134.674 178.963 133.774C179.791 132.874 180.853 132.424 182.149 132.424C183.349 132.424 184.351 132.814 185.155 133.594C185.971 134.362 186.379 135.532 186.379 137.104V137.59H179.287C179.323 138.67 179.593 139.498 180.097 140.074C180.613 140.638 181.351 140.92 182.311 140.92C183.787 140.92 184.621 140.374 184.813 139.282H186.307C186.151 140.206 185.713 140.92 184.993 141.424C184.273 141.916 183.373 142.162 182.293 142.162ZM179.341 136.384H184.849C184.717 134.572 183.817 133.666 182.149 133.666C181.393 133.666 180.769 133.912 180.277 134.404C179.785 134.884 179.473 135.544 179.341 136.384ZM193.835 142V128.086H195.329V134.08C195.557 133.6 195.935 133.204 196.463 132.892C196.991 132.58 197.621 132.424 198.353 132.424C199.385 132.424 200.195 132.73 200.783 133.342C201.371 133.954 201.665 134.914 201.665 136.222V142H200.171V136.114C200.171 135.286 199.991 134.68 199.631 134.296C199.271 133.912 198.713 133.72 197.957 133.72C197.225 133.72 196.601 133.948 196.085 134.404C195.581 134.86 195.329 135.49 195.329 136.294V142H193.835ZM208.717 140.92C209.653 140.92 210.397 140.596 210.949 139.948C211.513 139.3 211.795 138.442 211.795 137.374V137.248C211.795 136.156 211.513 135.286 210.949 134.638C210.397 133.99 209.653 133.666 208.717 133.666C207.769 133.666 207.019 133.99 206.467 134.638C205.915 135.286 205.639 136.15 205.639 137.23V137.374C205.639 138.454 205.915 139.318 206.467 139.966C207.019 140.602 207.769 140.92 208.717 140.92ZM208.699 142.162C207.367 142.162 206.263 141.712 205.387 140.812C204.523 139.9 204.091 138.754 204.091 137.374V137.23C204.091 135.826 204.523 134.674 205.387 133.774C206.263 132.874 207.373 132.424 208.717 132.424C210.061 132.424 211.165 132.874 212.029 133.774C212.905 134.662 213.343 135.808 213.343 137.212V137.356C213.343 138.772 212.905 139.93 212.029 140.83C211.153 141.718 210.043 142.162 208.699 142.162ZM217.57 142L214.672 132.586H216.292L218.488 140.164L220.774 132.586H222.07L224.212 140.164L226.426 132.586H227.956L225.022 142H223.366L221.404 134.944L219.208 142H217.57ZM13.6319 167V157.586H15.1259V159.026C15.3539 158.558 15.7139 158.174 16.2059 157.874C16.7099 157.574 17.2859 157.424 17.9339 157.424C19.3139 157.424 20.2319 158.012 20.6879 159.188C20.9879 158.612 21.4379 158.174 22.0379 157.874C22.6499 157.574 23.2739 157.424 23.9099 157.424C24.8339 157.424 25.5899 157.73 26.1779 158.342C26.7779 158.942 27.0779 159.884 27.0779 161.168V167H25.5839V161.06C25.5839 159.5 24.9179 158.72 23.5859 158.72C22.9139 158.72 22.3319 158.942 21.8399 159.386C21.3479 159.83 21.1019 160.448 21.1019 161.24V167H19.6079V161.06C19.6079 159.5 18.9419 158.72 17.6099 158.72C16.9379 158.72 16.3559 158.942 15.8639 159.386C15.3719 159.83 15.1259 160.448 15.1259 161.24V167H13.6319ZM32.5727 167.162C31.6487 167.162 30.8927 166.934 30.3047 166.478C29.7287 166.01 29.4407 165.314 29.4407 164.39C29.4407 163.382 29.8847 162.644 30.7727 162.176C31.6727 161.708 32.8007 161.474 34.1567 161.474H35.5067V160.79C35.5067 160.034 35.3507 159.494 35.0387 159.17C34.7267 158.834 34.2107 158.666 33.4907 158.666C32.1947 158.666 31.4747 159.23 31.3307 160.358H29.8367C29.9327 159.35 30.3287 158.612 31.0247 158.144C31.7207 157.664 32.5667 157.424 33.5627 157.424C35.8547 157.424 37.0007 158.546 37.0007 160.79V167H35.5067V165.812C34.7867 166.712 33.8087 167.162 32.5727 167.162ZM32.7167 165.974C33.5327 165.974 34.1987 165.776 34.7147 165.38C35.2427 164.972 35.5067 164.414 35.5067 163.706V162.536H34.2107C32.0267 162.536 30.9347 163.154 30.9347 164.39C30.9347 165.446 31.5287 165.974 32.7167 165.974ZM40.1354 167V157.586H41.6294V159.08C41.8574 158.6 42.2354 158.204 42.7634 157.892C43.2914 157.58 43.9214 157.424 44.6534 157.424C45.6854 157.424 46.4954 157.73 47.0834 158.342C47.6714 158.954 47.9654 159.914 47.9654 161.222V167H46.4714V161.114C46.4714 160.286 46.2914 159.68 45.9314 159.296C45.5714 158.912 45.0134 158.72 44.2574 158.72C43.5254 158.72 42.9014 158.948 42.3854 159.404C41.8814 159.86 41.6294 160.49 41.6294 161.294V167H40.1354ZM51.6756 170.276L53.4576 166.028L49.7676 157.586H51.3696L54.2496 164.336L56.8596 157.586H58.3896L53.1876 170.276H51.6756ZM65.5206 167V157.586H67.0146V159.026C67.2426 158.558 67.6026 158.174 68.0946 157.874C68.5986 157.574 69.1746 157.424 69.8226 157.424C71.2026 157.424 72.1206 158.012 72.5766 159.188C72.8766 158.612 73.3266 158.174 73.9266 157.874C74.5386 157.574 75.1626 157.424 75.7986 157.424C76.7226 157.424 77.4786 157.73 78.0666 158.342C78.6666 158.942 78.9666 159.884 78.9666 161.168V167H77.4726V161.06C77.4726 159.5 76.8066 158.72 75.4746 158.72C74.8026 158.72 74.2206 158.942 73.7286 159.386C73.2366 159.83 72.9906 160.448 72.9906 161.24V167H71.4966V161.06C71.4966 159.5 70.8306 158.72 69.4986 158.72C68.8266 158.72 68.2446 158.942 67.7526 159.386C67.2606 159.83 67.0146 160.448 67.0146 161.24V167H65.5206ZM86.0274 165.92C86.9634 165.92 87.7074 165.596 88.2594 164.948C88.8234 164.3 89.1054 163.442 89.1054 162.374V162.248C89.1054 161.156 88.8234 160.286 88.2594 159.638C87.7074 158.99 86.9634 158.666 86.0274 158.666C85.0794 158.666 84.3294 158.99 83.7774 159.638C83.2254 160.286 82.9494 161.15 82.9494 162.23V162.374C82.9494 163.454 83.2254 164.318 83.7774 164.966C84.3294 165.602 85.0794 165.92 86.0274 165.92ZM86.0094 167.162C84.6774 167.162 83.5734 166.712 82.6974 165.812C81.8334 164.9 81.4014 163.754 81.4014 162.374V162.23C81.4014 160.826 81.8334 159.674 82.6974 158.774C83.5734 157.874 84.6834 157.424 86.0274 157.424C87.3714 157.424 88.4754 157.874 89.3394 158.774C90.2154 159.662 90.6534 160.808 90.6534 162.212V162.356C90.6534 163.772 90.2154 164.93 89.3394 165.83C88.4634 166.718 87.3534 167.162 86.0094 167.162ZM93.1667 167V157.586H94.6607V159.278C94.9847 158.69 95.3807 158.24 95.8487 157.928C96.3287 157.616 96.9647 157.448 97.7567 157.424V158.828C96.7247 158.876 95.9507 159.116 95.4347 159.548C94.9187 159.98 94.6607 160.742 94.6607 161.834V167H93.1667ZM103.723 167.162C102.379 167.162 101.281 166.73 100.429 165.866C99.5886 164.99 99.1686 163.832 99.1686 162.392V162.248C99.1686 160.832 99.5766 159.674 100.393 158.774C101.221 157.874 102.283 157.424 103.579 157.424C104.779 157.424 105.781 157.814 106.585 158.594C107.401 159.362 107.809 160.532 107.809 162.104V162.59H100.717C100.753 163.67 101.023 164.498 101.527 165.074C102.043 165.638 102.781 165.92 103.741 165.92C105.217 165.92 106.051 165.374 106.243 164.282H107.737C107.581 165.206 107.143 165.92 106.423 166.424C105.703 166.916 104.803 167.162 103.723 167.162ZM100.771 161.384H106.279C106.147 159.572 105.247 158.666 103.579 158.666C102.823 158.666 102.199 158.912 101.707 159.404C101.215 159.884 100.903 160.544 100.771 161.384ZM118.811 167.162C117.551 167.162 116.525 166.742 115.733 165.902C114.953 165.062 114.563 163.922 114.563 162.482V162.338C114.563 160.898 114.971 159.722 115.787 158.81C116.603 157.886 117.659 157.424 118.955 157.424C120.347 157.424 121.373 157.982 122.033 159.098V153.086H123.527V167H122.033V165.38C121.745 165.86 121.301 166.28 120.701 166.64C120.101 166.988 119.471 167.162 118.811 167.162ZM118.973 165.92C119.897 165.92 120.647 165.62 121.223 165.02C121.799 164.408 122.087 163.52 122.087 162.356V162.212C122.087 161.036 121.823 160.154 121.295 159.566C120.779 158.966 120.047 158.666 119.099 158.666C118.163 158.666 117.431 158.984 116.903 159.62C116.375 160.244 116.111 161.126 116.111 162.266V162.41C116.111 163.55 116.375 164.42 116.903 165.02C117.443 165.62 118.133 165.92 118.973 165.92ZM129.108 167.162C128.184 167.162 127.428 166.934 126.84 166.478C126.264 166.01 125.976 165.314 125.976 164.39C125.976 163.382 126.42 162.644 127.308 162.176C128.208 161.708 129.336 161.474 130.692 161.474H132.042V160.79C132.042 160.034 131.886 159.494 131.574 159.17C131.262 158.834 130.746 158.666 130.026 158.666C128.73 158.666 128.01 159.23 127.866 160.358H126.372C126.468 159.35 126.864 158.612 127.56 158.144C128.256 157.664 129.102 157.424 130.098 157.424C132.39 157.424 133.536 158.546 133.536 160.79V167H132.042V165.812C131.322 166.712 130.344 167.162 129.108 167.162ZM129.252 165.974C130.068 165.974 130.734 165.776 131.25 165.38C131.778 164.972 132.042 164.414 132.042 163.706V162.536H130.746C128.562 162.536 127.47 163.154 127.47 164.39C127.47 165.446 128.064 165.974 129.252 165.974ZM137.253 170.276L139.035 166.028L135.345 157.586H136.947L139.827 164.336L142.437 157.586H143.967L138.765 170.276H137.253ZM149.05 167.162C147.922 167.162 147.034 166.892 146.386 166.352C145.75 165.812 145.408 165.062 145.36 164.102H146.818C146.938 165.314 147.676 165.92 149.032 165.92C150.4 165.92 151.084 165.422 151.084 164.426C151.084 163.958 150.91 163.616 150.562 163.4C150.226 163.172 149.668 162.986 148.888 162.842C147.664 162.614 146.812 162.302 146.332 161.906C145.852 161.498 145.612 160.886 145.612 160.07C145.612 159.254 145.936 158.612 146.584 158.144C147.244 157.664 147.982 157.424 148.798 157.424C150.838 157.424 151.972 158.33 152.2 160.142H150.76C150.652 159.626 150.442 159.254 150.13 159.026C149.818 158.786 149.368 158.666 148.78 158.666C148.24 158.666 147.808 158.792 147.484 159.044C147.16 159.284 146.998 159.608 146.998 160.016C146.998 160.448 147.148 160.766 147.448 160.97C147.76 161.174 148.342 161.354 149.194 161.51C149.758 161.618 150.208 161.726 150.544 161.834C150.892 161.93 151.228 162.08 151.552 162.284C151.888 162.488 152.128 162.758 152.272 163.094C152.428 163.418 152.506 163.82 152.506 164.3C152.506 165.176 152.206 165.872 151.606 166.388C151.018 166.904 150.166 167.162 149.05 167.162ZM160.792 170.276L162.574 166.028L158.884 157.586H160.486L163.366 164.336L165.976 157.586H167.506L162.304 170.276H160.792ZM173.334 165.92C174.27 165.92 175.014 165.596 175.566 164.948C176.13 164.3 176.412 163.442 176.412 162.374V162.248C176.412 161.156 176.13 160.286 175.566 159.638C175.014 158.99 174.27 158.666 173.334 158.666C172.386 158.666 171.636 158.99 171.084 159.638C170.532 160.286 170.256 161.15 170.256 162.23V162.374C170.256 163.454 170.532 164.318 171.084 164.966C171.636 165.602 172.386 165.92 173.334 165.92ZM173.316 167.162C171.984 167.162 170.88 166.712 170.004 165.812C169.14 164.9 168.708 163.754 168.708 162.374V162.23C168.708 160.826 169.14 159.674 170.004 158.774C170.88 157.874 171.99 157.424 173.334 157.424C174.678 157.424 175.782 157.874 176.646 158.774C177.522 159.662 177.96 160.808 177.96 162.212V162.356C177.96 163.772 177.522 164.93 176.646 165.83C175.77 166.718 174.66 167.162 173.316 167.162ZM183.659 167.162C182.663 167.162 181.865 166.868 181.265 166.28C180.677 165.692 180.383 164.78 180.383 163.544V157.586H181.877V163.472C181.877 164.3 182.051 164.906 182.399 165.29C182.759 165.674 183.311 165.866 184.055 165.866C184.763 165.866 185.369 165.638 185.873 165.182C186.389 164.726 186.647 164.096 186.647 163.292V157.586H188.141V167H186.647V165.506C186.419 165.986 186.041 166.382 185.513 166.694C184.997 167.006 184.379 167.162 183.659 167.162ZM196.325 167V157.586H197.819V159.08C198.047 158.6 198.425 158.204 198.953 157.892C199.481 157.58 200.111 157.424 200.843 157.424C201.875 157.424 202.685 157.73 203.273 158.342C203.861 158.954 204.155 159.914 204.155 161.222V167H202.661V161.114C202.661 160.286 202.481 159.68 202.121 159.296C201.761 158.912 201.203 158.72 200.447 158.72C199.715 158.72 199.091 158.948 198.575 159.404C198.071 159.86 197.819 160.49 197.819 161.294V167H196.325ZM211.134 167.162C209.79 167.162 208.692 166.73 207.84 165.866C207 164.99 206.58 163.832 206.58 162.392V162.248C206.58 160.832 206.988 159.674 207.804 158.774C208.632 157.874 209.694 157.424 210.99 157.424C212.19 157.424 213.192 157.814 213.996 158.594C214.812 159.362 215.22 160.532 215.22 162.104V162.59H208.128C208.164 163.67 208.434 164.498 208.938 165.074C209.454 165.638 210.192 165.92 211.152 165.92C212.628 165.92 213.462 165.374 213.654 164.282H215.148C214.992 165.206 214.554 165.92 213.834 166.424C213.114 166.916 212.214 167.162 211.134 167.162ZM208.182 161.384H213.69C213.558 159.572 212.658 158.666 210.99 158.666C210.234 158.666 209.61 158.912 209.118 159.404C208.626 159.884 208.314 160.544 208.182 161.384ZM221.565 167.162C220.221 167.162 219.123 166.73 218.271 165.866C217.431 164.99 217.011 163.832 217.011 162.392V162.248C217.011 160.832 217.419 159.674 218.235 158.774C219.063 157.874 220.125 157.424 221.421 157.424C222.621 157.424 223.623 157.814 224.427 158.594C225.243 159.362 225.651 160.532 225.651 162.104V162.59H218.559C218.595 163.67 218.865 164.498 219.369 165.074C219.885 165.638 220.623 165.92 221.583 165.92C223.059 165.92 223.893 165.374 224.085 164.282H225.579C225.423 165.206 224.985 165.92 224.265 166.424C223.545 166.916 222.645 167.162 221.565 167.162ZM218.613 161.384H224.121C223.989 159.572 223.089 158.666 221.421 158.666C220.665 158.666 220.041 158.912 219.549 159.404C219.057 159.884 218.745 160.544 218.613 161.384ZM231.689 167.162C230.429 167.162 229.403 166.742 228.611 165.902C227.831 165.062 227.441 163.922 227.441 162.482V162.338C227.441 160.898 227.849 159.722 228.665 158.81C229.481 157.886 230.537 157.424 231.833 157.424C233.225 157.424 234.251 157.982 234.911 159.098V153.086H236.405V167H234.911V165.38C234.623 165.86 234.179 166.28 233.579 166.64C232.979 166.988 232.349 167.162 231.689 167.162ZM231.851 165.92C232.775 165.92 233.525 165.62 234.101 165.02C234.677 164.408 234.965 163.52 234.965 162.356V162.212C234.965 161.036 234.701 160.154 234.173 159.566C233.657 158.966 232.925 158.666 231.977 158.666C231.041 158.666 230.309 158.984 229.781 159.62C229.253 160.244 228.989 161.126 228.989 162.266V162.41C228.989 163.55 229.253 164.42 229.781 165.02C230.321 165.62 231.011 165.92 231.851 165.92ZM37.5152 192.126C36.6872 192.126 36.0572 191.904 35.6252 191.46C35.1932 191.016 34.9772 190.41 34.9772 189.642V183.846H33.6272V182.586H34.9772V180.444H36.4712V182.586H38.6672V183.846H36.4712V189.498C36.4712 190.41 36.8612 190.866 37.6412 190.866C38.0732 190.866 38.4572 190.8 38.7932 190.668V191.928C38.4212 192.06 37.9952 192.126 37.5152 192.126ZM45.1757 190.92C46.1117 190.92 46.8557 190.596 47.4077 189.948C47.9717 189.3 48.2537 188.442 48.2537 187.374V187.248C48.2537 186.156 47.9717 185.286 47.4077 184.638C46.8557 183.99 46.1117 183.666 45.1757 183.666C44.2277 183.666 43.4777 183.99 42.9257 184.638C42.3737 185.286 42.0977 186.15 42.0977 187.23V187.374C42.0977 188.454 42.3737 189.318 42.9257 189.966C43.4777 190.602 44.2277 190.92 45.1757 190.92ZM45.1577 192.162C43.8257 192.162 42.7217 191.712 41.8457 190.812C40.9817 189.9 40.5497 188.754 40.5497 187.374V187.23C40.5497 185.826 40.9817 184.674 41.8457 183.774C42.7217 182.874 43.8317 182.424 45.1757 182.424C46.5197 182.424 47.6237 182.874 48.4877 183.774C49.3637 184.662 49.8017 185.808 49.8017 187.212V187.356C49.8017 188.772 49.3637 189.93 48.4877 190.83C47.6117 191.718 46.5017 192.162 45.1577 192.162ZM59.1686 192L56.2706 182.586H57.8906L60.0866 190.164L62.3726 182.586H63.6686L65.8106 190.164L68.0246 182.586H69.5546L66.6206 192H64.9646L63.0026 184.944L60.8066 192H59.1686ZM75.5178 190.92C76.4538 190.92 77.1978 190.596 77.7498 189.948C78.3138 189.3 78.5958 188.442 78.5958 187.374V187.248C78.5958 186.156 78.3138 185.286 77.7498 184.638C77.1978 183.99 76.4538 183.666 75.5178 183.666C74.5698 183.666 73.8198 183.99 73.2678 184.638C72.7158 185.286 72.4398 186.15 72.4398 187.23V187.374C72.4398 188.454 72.7158 189.318 73.2678 189.966C73.8198 190.602 74.5698 190.92 75.5178 190.92ZM75.4998 192.162C74.1678 192.162 73.0638 191.712 72.1878 190.812C71.3238 189.9 70.8918 188.754 70.8918 187.374V187.23C70.8918 185.826 71.3238 184.674 72.1878 183.774C73.0638 182.874 74.1738 182.424 75.5178 182.424C76.8618 182.424 77.9658 182.874 78.8298 183.774C79.7058 184.662 80.1438 185.808 80.1438 187.212V187.356C80.1438 188.772 79.7058 189.93 78.8298 190.83C77.9538 191.718 76.8438 192.162 75.4998 192.162ZM82.6571 192V182.586H84.1511V184.278C84.4751 183.69 84.8711 183.24 85.3391 182.928C85.8191 182.616 86.4551 182.448 87.2471 182.424V183.828C86.2151 183.876 85.4411 184.116 84.9251 184.548C84.4091 184.98 84.1511 185.742 84.1511 186.834V192H82.6571ZM89.6247 192V178.086H91.1187V186.924L95.0247 182.586H96.7707L92.7387 186.96L97.1127 192H95.2947L91.1187 187.122V192H89.6247ZM106.932 192.126C106.104 192.126 105.474 191.904 105.042 191.46C104.61 191.016 104.394 190.41 104.394 189.642V183.846H103.044V182.586H104.394V180.444H105.888V182.586H108.084V183.846H105.888V189.498C105.888 190.41 106.278 190.866 107.058 190.866C107.49 190.866 107.874 190.8 108.21 190.668V191.928C107.838 192.06 107.412 192.126 106.932 192.126ZM114.592 190.92C115.528 190.92 116.272 190.596 116.824 189.948C117.388 189.3 117.67 188.442 117.67 187.374V187.248C117.67 186.156 117.388 185.286 116.824 184.638C116.272 183.99 115.528 183.666 114.592 183.666C113.644 183.666 112.894 183.99 112.342 184.638C111.79 185.286 111.514 186.15 111.514 187.23V187.374C111.514 188.454 111.79 189.318 112.342 189.966C112.894 190.602 113.644 190.92 114.592 190.92ZM114.574 192.162C113.242 192.162 112.138 191.712 111.262 190.812C110.398 189.9 109.966 188.754 109.966 187.374V187.23C109.966 185.826 110.398 184.674 111.262 183.774C112.138 182.874 113.248 182.424 114.592 182.424C115.936 182.424 117.04 182.874 117.904 183.774C118.78 184.662 119.218 185.808 119.218 187.212V187.356C119.218 188.772 118.78 189.93 117.904 190.83C117.028 191.718 115.918 192.162 114.574 192.162ZM126.695 192V182.586H128.189V184.278C128.513 183.69 128.909 183.24 129.377 182.928C129.857 182.616 130.493 182.448 131.285 182.424V183.828C130.253 183.876 129.479 184.116 128.963 184.548C128.447 184.98 128.189 185.742 128.189 186.834V192H126.695ZM137.251 192.162C135.907 192.162 134.809 191.73 133.957 190.866C133.117 189.99 132.697 188.832 132.697 187.392V187.248C132.697 185.832 133.105 184.674 133.921 183.774C134.749 182.874 135.811 182.424 137.107 182.424C138.307 182.424 139.309 182.814 140.113 183.594C140.929 184.362 141.337 185.532 141.337 187.104V187.59H134.245C134.281 188.67 134.551 189.498 135.055 190.074C135.571 190.638 136.309 190.92 137.269 190.92C138.745 190.92 139.579 190.374 139.771 189.282H141.265C141.109 190.206 140.671 190.92 139.951 191.424C139.231 191.916 138.331 192.162 137.251 192.162ZM134.299 186.384H139.807C139.675 184.572 138.775 183.666 137.107 183.666C136.351 183.666 135.727 183.912 135.235 184.404C134.743 184.884 134.431 185.544 134.299 186.384ZM146.275 192.162C145.351 192.162 144.595 191.934 144.007 191.478C143.431 191.01 143.143 190.314 143.143 189.39C143.143 188.382 143.587 187.644 144.475 187.176C145.375 186.708 146.503 186.474 147.859 186.474H149.209V185.79C149.209 185.034 149.053 184.494 148.741 184.17C148.429 183.834 147.913 183.666 147.193 183.666C145.897 183.666 145.177 184.23 145.033 185.358H143.539C143.635 184.35 144.031 183.612 144.727 183.144C145.423 182.664 146.269 182.424 147.265 182.424C149.557 182.424 150.703 183.546 150.703 185.79V192H149.209V190.812C148.489 191.712 147.511 192.162 146.275 192.162ZM146.419 190.974C147.235 190.974 147.901 190.776 148.417 190.38C148.945 189.972 149.209 189.414 149.209 188.706V187.536H147.913C145.729 187.536 144.637 188.154 144.637 189.39C144.637 190.446 145.231 190.974 146.419 190.974ZM157.744 192.162C156.412 192.162 155.308 191.73 154.432 190.866C153.568 189.99 153.136 188.832 153.136 187.392V187.248C153.136 185.832 153.574 184.674 154.45 183.774C155.338 182.874 156.424 182.424 157.708 182.424C158.788 182.424 159.706 182.694 160.462 183.234C161.218 183.762 161.662 184.59 161.794 185.718H160.318C160.102 184.35 159.232 183.666 157.708 183.666C156.832 183.666 156.106 183.996 155.53 184.656C154.966 185.304 154.684 186.168 154.684 187.248V187.392C154.684 188.52 154.96 189.39 155.512 190.002C156.076 190.614 156.826 190.92 157.762 190.92C158.47 190.92 159.076 190.722 159.58 190.326C160.096 189.918 160.39 189.348 160.462 188.616H161.848C161.752 189.648 161.32 190.5 160.552 191.172C159.796 191.832 158.86 192.162 157.744 192.162ZM164.304 192V178.086H165.798V184.08C166.026 183.6 166.404 183.204 166.932 182.892C167.46 182.58 168.09 182.424 168.822 182.424C169.854 182.424 170.664 182.73 171.252 183.342C171.84 183.954 172.134 184.914 172.134 186.222V192H170.64V186.114C170.64 185.286 170.46 184.68 170.1 184.296C169.74 183.912 169.182 183.72 168.426 183.72C167.694 183.72 167.07 183.948 166.554 184.404C166.05 184.86 165.798 185.49 165.798 186.294V192H164.304ZM181.071 195.276L182.853 191.028L179.163 182.586H180.765L183.645 189.336L186.255 182.586H187.785L182.583 195.276H181.071ZM193.613 190.92C194.549 190.92 195.293 190.596 195.845 189.948C196.409 189.3 196.691 188.442 196.691 187.374V187.248C196.691 186.156 196.409 185.286 195.845 184.638C195.293 183.99 194.549 183.666 193.613 183.666C192.665 183.666 191.915 183.99 191.363 184.638C190.811 185.286 190.535 186.15 190.535 187.23V187.374C190.535 188.454 190.811 189.318 191.363 189.966C191.915 190.602 192.665 190.92 193.613 190.92ZM193.595 192.162C192.263 192.162 191.159 191.712 190.283 190.812C189.419 189.9 188.987 188.754 188.987 187.374V187.23C188.987 185.826 189.419 184.674 190.283 183.774C191.159 182.874 192.269 182.424 193.613 182.424C194.957 182.424 196.061 182.874 196.925 183.774C197.801 184.662 198.239 185.808 198.239 187.212V187.356C198.239 188.772 197.801 189.93 196.925 190.83C196.049 191.718 194.939 192.162 193.595 192.162ZM203.938 192.162C202.942 192.162 202.144 191.868 201.544 191.28C200.956 190.692 200.662 189.78 200.662 188.544V182.586H202.156V188.472C202.156 189.3 202.33 189.906 202.678 190.29C203.038 190.674 203.59 190.866 204.334 190.866C205.042 190.866 205.648 190.638 206.152 190.182C206.668 189.726 206.926 189.096 206.926 188.292V182.586H208.42V192H206.926V190.506C206.698 190.986 206.32 191.382 205.792 191.694C205.276 192.006 204.658 192.162 203.938 192.162ZM211.64 192V182.586H213.134V184.278C213.458 183.69 213.854 183.24 214.322 182.928C214.802 182.616 215.438 182.448 216.23 182.424V183.828C215.198 183.876 214.424 184.116 213.908 184.548C213.392 184.98 213.134 185.742 213.134 186.834V192H211.64ZM69.2954 217V208.846H67.9454V207.586H69.2954V206.056C69.2954 205.084 69.5294 204.34 69.9974 203.824C70.4654 203.296 71.1554 203.032 72.0674 203.032C72.4994 203.032 72.8414 203.08 73.0934 203.176V204.436C72.8294 204.328 72.5054 204.274 72.1214 204.274C71.2334 204.274 70.7894 204.814 70.7894 205.894V207.586H73.0934V208.846H70.7894V217H69.2954ZM75.1664 217V207.586H76.6604V217H75.1664ZM76.5704 205.336C76.3784 205.528 76.1504 205.624 75.8864 205.624C75.6224 205.624 75.3884 205.528 75.1844 205.336C74.9924 205.144 74.8964 204.91 74.8964 204.634C74.8964 204.358 74.9924 204.124 75.1844 203.932C75.3884 203.74 75.6224 203.644 75.8864 203.644C76.1504 203.644 76.3784 203.74 76.5704 203.932C76.7744 204.124 76.8764 204.358 76.8764 204.634C76.8764 204.91 76.7744 205.144 76.5704 205.336ZM79.9183 217V207.586H81.4123V209.08C81.6403 208.6 82.0183 208.204 82.5463 207.892C83.0743 207.58 83.7043 207.424 84.4363 207.424C85.4683 207.424 86.2783 207.73 86.8663 208.342C87.4543 208.954 87.7483 209.914 87.7483 211.222V217H86.2543V211.114C86.2543 210.286 86.0743 209.68 85.7143 209.296C85.3543 208.912 84.7963 208.72 84.0403 208.72C83.3083 208.72 82.6843 208.948 82.1683 209.404C81.6643 209.86 81.4123 210.49 81.4123 211.294V217H79.9183ZM93.2341 217.162C92.3101 217.162 91.5541 216.934 90.9661 216.478C90.3901 216.01 90.1021 215.314 90.1021 214.39C90.1021 213.382 90.5461 212.644 91.4341 212.176C92.3341 211.708 93.4621 211.474 94.8181 211.474H96.1681V210.79C96.1681 210.034 96.0121 209.494 95.7001 209.17C95.3881 208.834 94.8721 208.666 94.1521 208.666C92.8561 208.666 92.1361 209.23 91.9921 210.358H90.4981C90.5941 209.35 90.9901 208.612 91.6861 208.144C92.3821 207.664 93.2281 207.424 94.2241 207.424C96.5161 207.424 97.6621 208.546 97.6621 210.79V217H96.1681V215.812C95.4481 216.712 94.4701 217.162 93.2341 217.162ZM93.3781 215.974C94.1941 215.974 94.8601 215.776 95.3761 215.38C95.9041 214.972 96.1681 214.414 96.1681 213.706V212.536H94.8721C92.6881 212.536 91.5961 213.154 91.5961 214.39C91.5961 215.446 92.1901 215.974 93.3781 215.974ZM100.797 217V207.586H102.291V209.08C102.519 208.6 102.897 208.204 103.425 207.892C103.953 207.58 104.583 207.424 105.315 207.424C106.347 207.424 107.157 207.73 107.745 208.342C108.333 208.954 108.627 209.914 108.627 211.222V217H107.133V211.114C107.133 210.286 106.953 209.68 106.593 209.296C106.233 208.912 105.675 208.72 104.919 208.72C104.187 208.72 103.563 208.948 103.047 209.404C102.543 209.86 102.291 210.49 102.291 211.294V217H100.797ZM115.661 217.162C114.329 217.162 113.225 216.73 112.349 215.866C111.485 214.99 111.053 213.832 111.053 212.392V212.248C111.053 210.832 111.491 209.674 112.367 208.774C113.255 207.874 114.341 207.424 115.625 207.424C116.705 207.424 117.623 207.694 118.379 208.234C119.135 208.762 119.579 209.59 119.711 210.718H118.235C118.019 209.35 117.149 208.666 115.625 208.666C114.749 208.666 114.023 208.996 113.447 209.656C112.883 210.304 112.601 211.168 112.601 212.248V212.392C112.601 213.52 112.877 214.39 113.429 215.002C113.993 215.614 114.743 215.92 115.679 215.92C116.387 215.92 116.993 215.722 117.497 215.326C118.013 214.918 118.307 214.348 118.379 213.616H119.765C119.669 214.648 119.237 215.5 118.469 216.172C117.713 216.832 116.777 217.162 115.661 217.162ZM122.256 217V207.586H123.75V217H122.256ZM123.66 205.336C123.468 205.528 123.24 205.624 122.976 205.624C122.712 205.624 122.478 205.528 122.274 205.336C122.082 205.144 121.986 204.91 121.986 204.634C121.986 204.358 122.082 204.124 122.274 203.932C122.478 203.74 122.712 203.644 122.976 203.644C123.24 203.644 123.468 203.74 123.66 203.932C123.864 204.124 123.966 204.358 123.966 204.634C123.966 204.91 123.864 205.144 123.66 205.336ZM129.366 217.162C128.442 217.162 127.686 216.934 127.098 216.478C126.522 216.01 126.234 215.314 126.234 214.39C126.234 213.382 126.678 212.644 127.566 212.176C128.466 211.708 129.594 211.474 130.95 211.474H132.3V210.79C132.3 210.034 132.144 209.494 131.832 209.17C131.52 208.834 131.004 208.666 130.284 208.666C128.988 208.666 128.268 209.23 128.124 210.358H126.63C126.726 209.35 127.122 208.612 127.818 208.144C128.514 207.664 129.36 207.424 130.356 207.424C132.648 207.424 133.794 208.546 133.794 210.79V217H132.3V215.812C131.58 216.712 130.602 217.162 129.366 217.162ZM129.51 215.974C130.326 215.974 130.992 215.776 131.508 215.38C132.036 214.972 132.3 214.414 132.3 213.706V212.536H131.004C128.82 212.536 127.728 213.154 127.728 214.39C127.728 215.446 128.322 215.974 129.51 215.974ZM136.965 217V203.086H138.477V217H136.965ZM150.46 220.438C149.152 220.438 148.144 220.168 147.436 219.628C146.74 219.1 146.326 218.404 146.194 217.54H147.724C147.94 218.632 148.846 219.178 150.442 219.178C151.402 219.178 152.146 218.938 152.674 218.458C153.202 217.99 153.466 217.264 153.466 216.28V214.912C153.178 215.404 152.74 215.824 152.152 216.172C151.564 216.52 150.94 216.694 150.28 216.694C149.044 216.694 148.018 216.274 147.202 215.434C146.398 214.594 145.996 213.526 145.996 212.23V212.104C145.996 210.796 146.41 209.692 147.238 208.792C148.066 207.88 149.116 207.424 150.388 207.424C151.78 207.424 152.806 207.982 153.466 209.098V207.586H154.96V216.37C154.948 217.702 154.534 218.71 153.718 219.394C152.902 220.09 151.816 220.438 150.46 220.438ZM150.442 215.452C151.342 215.452 152.08 215.158 152.656 214.57C153.232 213.97 153.52 213.154 153.52 212.122V211.996C153.52 210.952 153.25 210.136 152.71 209.548C152.182 208.96 151.456 208.666 150.532 208.666C149.608 208.666 148.876 208.978 148.336 209.602C147.808 210.214 147.544 211.024 147.544 212.032V212.176C147.544 213.172 147.82 213.97 148.372 214.57C148.936 215.158 149.626 215.452 150.442 215.452ZM162.107 215.92C163.043 215.92 163.787 215.596 164.339 214.948C164.903 214.3 165.185 213.442 165.185 212.374V212.248C165.185 211.156 164.903 210.286 164.339 209.638C163.787 208.99 163.043 208.666 162.107 208.666C161.159 208.666 160.409 208.99 159.857 209.638C159.305 210.286 159.029 211.15 159.029 212.23V212.374C159.029 213.454 159.305 214.318 159.857 214.966C160.409 215.602 161.159 215.92 162.107 215.92ZM162.089 217.162C160.757 217.162 159.653 216.712 158.777 215.812C157.913 214.9 157.481 213.754 157.481 212.374V212.23C157.481 210.826 157.913 209.674 158.777 208.774C159.653 207.874 160.763 207.424 162.107 207.424C163.451 207.424 164.555 207.874 165.419 208.774C166.295 209.662 166.733 210.808 166.733 212.212V212.356C166.733 213.772 166.295 214.93 165.419 215.83C164.543 216.718 163.433 217.162 162.089 217.162ZM171.604 217.162C170.68 217.162 169.924 216.934 169.336 216.478C168.76 216.01 168.472 215.314 168.472 214.39C168.472 213.382 168.916 212.644 169.804 212.176C170.704 211.708 171.832 211.474 173.188 211.474H174.538V210.79C174.538 210.034 174.382 209.494 174.07 209.17C173.758 208.834 173.242 208.666 172.522 208.666C171.226 208.666 170.506 209.23 170.362 210.358H168.868C168.964 209.35 169.36 208.612 170.056 208.144C170.752 207.664 171.598 207.424 172.594 207.424C174.886 207.424 176.032 208.546 176.032 210.79V217H174.538V215.812C173.818 216.712 172.84 217.162 171.604 217.162ZM171.748 215.974C172.564 215.974 173.23 215.776 173.746 215.38C174.274 214.972 174.538 214.414 174.538 213.706V212.536H173.242C171.058 212.536 169.966 213.154 169.966 214.39C169.966 215.446 170.56 215.974 171.748 215.974ZM179.203 217V203.086H180.715V217H179.203ZM185.809 216.766C185.581 216.982 185.311 217.09 184.999 217.09C184.687 217.09 184.417 216.982 184.189 216.766C183.961 216.538 183.847 216.262 183.847 215.938C183.847 215.614 183.961 215.344 184.189 215.128C184.417 214.9 184.687 214.786 184.999 214.786C185.311 214.786 185.581 214.9 185.809 215.128C186.037 215.344 186.151 215.614 186.151 215.938C186.151 216.262 186.037 216.538 185.809 216.766Z" fill="#374754"/>
</svg>
